<svg id="a978e5b7-048f-4737-8f1c-a3187f38a03e" data-name="FIZ-Logo + FIZ-Produktlogos" xmlns="http://www.w3.org/2000/svg" viewBox="0 0 343 60"><defs><style>.a1aee5f1-328a-4594-ad95-1e1f6ac64618{fill:#434245;}.b8e9d6f9-491c-4759-a907-4952f0de1481{fill:#444346;}.e43ae17a-d41b-450e-a984-28f3db065325{fill:#a62055;}</style></defs><g id="b72f0c2f-e5cf-43af-8a7f-7d94045a9204" data-name="FIZ-Produktlogos"><g id="f43dcaaf-4ca4-47ff-a196-efcf0e797d27" data-name="radar"><g id="fdca37e5-78c9-4f4b-9689-3830d53921b6" data-name="kurz"><path class="a1aee5f1-328a-4594-ad95-1e1f6ac64618" d="M39.5,40c-.76-1.29-1.07-1.83-1.83-3.2-2-3.52-2.54-4.48-3.24-4.79a2.16,2.16,0,0,0-.62-.17V40H30V20.49h7.28A5.42,5.42,0,0,1,43,26.23c0,2.92-1.94,5.34-4.36,5.4a3.54,3.54,0,0,1,.82.82c1.12,1.4,4.7,7.59,4.7,7.59ZM37.44,23.92a7.08,7.08,0,0,0-2.22-.28H33.81v5.29h1.32c1.69,0,2.42-.17,3-.65a2.66,2.66,0,0,0,.76-2A2.29,2.29,0,0,0,37.44,23.92Z"/><path class="a1aee5f1-328a-4594-ad95-1e1f6ac64618" d="M58.6,40,57.22,35.4H51.48L50.1,40H46l6.41-19.61h4.25L62.82,40ZM55.2,28.2c-.2-.9-.79-3.46-.79-3.46s-.56,2.3-.93,3.77-.62,2.33-1,3.63h3.83S55.62,30.08,55.2,28.2Z"/><path class="a1aee5f1-328a-4594-ad95-1e1f6ac64618" d="M78,37.12a6.71,6.71,0,0,1-4.76,2.81c-.73.06-1.66.11-2.81.11H65.69V20.49h3.94c1.13,0,2.62.05,3.41.11a6.62,6.62,0,0,1,4.27,1.94c1.81,1.78,2.68,4.28,2.68,7.8A11.2,11.2,0,0,1,78,37.12Zm-3.43-11.9a3.25,3.25,0,0,0-3.1-1.64h-1.8V36.84H71.8c2.59,0,3.77-2,3.77-6.14C75.57,28.42,75.37,26.51,74.59,25.22Z"/><path class="a1aee5f1-328a-4594-ad95-1e1f6ac64618" d="M94.06,40,92.68,35.4H86.94L85.56,40H81.45l6.42-19.61h4.25L98.28,40ZM90.65,28.2c-.19-.9-.78-3.46-.78-3.46s-.57,2.3-.93,3.77-.62,2.33-1,3.63h3.82S91.08,30.08,90.65,28.2Z"/><path class="a1aee5f1-328a-4594-ad95-1e1f6ac64618" d="M111,40c-.76-1.29-1.07-1.83-1.83-3.2-1.94-3.52-2.53-4.48-3.23-4.79a2.25,2.25,0,0,0-.62-.17V40h-3.86V20.49h7.29a5.42,5.42,0,0,1,5.74,5.74c0,2.92-1.94,5.34-4.36,5.4a3.68,3.68,0,0,1,.81.82c1.13,1.4,4.7,7.59,4.7,7.59Zm-2-16.12a7.11,7.11,0,0,0-2.23-.28h-1.4v5.29h1.32c1.69,0,2.42-.17,3-.65a2.66,2.66,0,0,0,.76-2A2.29,2.29,0,0,0,108.92,23.92Z"/></g></g><g id="a948ae99-14b8-493b-9434-6eb552f3ce18" data-name="produkt-unterzeilen"><g id="a0a93179-383c-45a8-808b-2332d9bb6afc" data-name="deutsch"><g id="fd8ca908-7f12-45b2-8083-23a6973dd27a" data-name="deutsch"><path class="b8e9d6f9-491c-4759-a907-4952f0de1481" d="M34.28,52.4H31.57v2h2.17v1.4H31.57v3.79H29.85V51h4.63Z"/><path class="b8e9d6f9-491c-4759-a907-4952f0de1481" d="M35.52,59.54V51h1.8v8.53Z"/><path class="b8e9d6f9-491c-4759-a907-4952f0de1481" d="M44.18,59.54H38.85v-1.2L42,53.15a7.44,7.44,0,0,1,.53-.78,5.91,5.91,0,0,1-.88.06H39L39.41,51h5.11v1.24l-3.17,5.34a4.8,4.8,0,0,1-.45.6s.51,0,.85,0h2.88Z"/><path class="a1aee5f1-328a-4594-ad95-1e1f6ac64618" d="M48.62,59.52V51.13h1v8.39Zm2.23-4.45,3.37,4.45H52.93l-3.22-4.44L53,51.13h1.29Z"/><path class="a1aee5f1-328a-4594-ad95-1e1f6ac64618" d="M59.33,59.78a1.19,1.19,0,0,1-.53-.34,1.45,1.45,0,0,1-.3-.56,2.79,2.79,0,0,1-.84.63,2,2,0,0,1-.92.19,2.37,2.37,0,0,1-.94-.16,1.7,1.7,0,0,1-.61-.4,1.35,1.35,0,0,1-.31-.56,2.21,2.21,0,0,1-.09-.62,1.84,1.84,0,0,1,.84-1.62,4.22,4.22,0,0,1,2.4-.58h.43v-.42a4.6,4.6,0,0,0,0-.61.61.61,0,0,0-.17-.34.78.78,0,0,0-.35-.25,1.15,1.15,0,0,0-.48-.08,2.93,2.93,0,0,0-1.09.21,4.48,4.48,0,0,0-.49.23,2.08,2.08,0,0,0-.38.27L55,54.09a4.52,4.52,0,0,1,2.56-.82,1.62,1.62,0,0,1,1.69,1,1.91,1.91,0,0,1,.13.59c0,.22,0,.48,0,.76l-.05,2c0,.25,0,.45,0,.62a1.52,1.52,0,0,0,.07.41.7.7,0,0,0,.15.27,1,1,0,0,0,.27.2ZM58.2,56.42H58a4.58,4.58,0,0,0-1,.1,1.93,1.93,0,0,0-.66.28,1,1,0,0,0-.36.46,1.66,1.66,0,0,0-.11.61c0,.74.35,1.11,1.07,1.11a1.67,1.67,0,0,0,.88-.26A1.78,1.78,0,0,0,58.4,58l0-1.58Z"/><path class="a1aee5f1-328a-4594-ad95-1e1f6ac64618" d="M64,54.34a.77.77,0,0,0-.27,0,1.4,1.4,0,0,0-1,.44,1.25,1.25,0,0,0-.28.39,1.65,1.65,0,0,0-.08.57v3.82h-1v-4.7a4.07,4.07,0,0,0-.21-1.3l1-.25a.5.5,0,0,1,.06.14,1.73,1.73,0,0,1,.1.37,1.56,1.56,0,0,1,0,.48,2.64,2.64,0,0,1,.79-.74,1.85,1.85,0,0,1,.93-.28,1.29,1.29,0,0,1,.33.06Z"/><path class="a1aee5f1-328a-4594-ad95-1e1f6ac64618" d="M66.8,59.64a1.24,1.24,0,0,1-.31,0,1,1,0,0,1-.73-.26.72.72,0,0,1-.22-.34,1.31,1.31,0,0,1-.08-.53V52.05a5.53,5.53,0,0,0-.15-1.25l1-.19a6.77,6.77,0,0,1,.16,1.45v6.26a1.06,1.06,0,0,0,.07.48c0,.09.14.13.28.13l.12,0,.2.62A1.17,1.17,0,0,1,66.8,59.64Z"/><path class="a1aee5f1-328a-4594-ad95-1e1f6ac64618" d="M72.62,57.73a2,2,0,0,1-.16.81,1.93,1.93,0,0,1-.47.63,2.26,2.26,0,0,1-.73.41,2.75,2.75,0,0,1-.93.15,4.72,4.72,0,0,1-1.18-.16,4.44,4.44,0,0,1-1.06-.44l.37-.71A3.69,3.69,0,0,0,70.4,59a1.35,1.35,0,0,0,.9-.28,1,1,0,0,0,.34-.78.89.89,0,0,0-.24-.66,1.49,1.49,0,0,0-.77-.35l-.76-.16a2.09,2.09,0,0,1-1.16-.61,1.56,1.56,0,0,1-.39-1.08,1.91,1.91,0,0,1,.16-.76,1.85,1.85,0,0,1,.45-.59,2.09,2.09,0,0,1,.69-.38,2.41,2.41,0,0,1,.87-.15,3.67,3.67,0,0,1,1,.14,3.59,3.59,0,0,1,.89.34l-.35.7c-.27-.13-.53-.23-.77-.32a2.43,2.43,0,0,0-.77-.12,1.2,1.2,0,0,0-.84.28,1,1,0,0,0-.32.74.83.83,0,0,0,.2.58,1.23,1.23,0,0,0,.69.32L71,56C72.08,56.25,72.62,56.82,72.62,57.73Z"/><path class="a1aee5f1-328a-4594-ad95-1e1f6ac64618" d="M76.85,54.34a.84.84,0,0,0-.27,0,1.36,1.36,0,0,0-1,.44,1.3,1.3,0,0,0-.29.39,1.69,1.69,0,0,0-.07.57v3.82h-1v-4.7a4.07,4.07,0,0,0-.21-1.3l1-.25a.5.5,0,0,1,.06.14,2.64,2.64,0,0,1,.1.37,2,2,0,0,1,0,.48,2.53,2.53,0,0,1,.79-.74,1.85,1.85,0,0,1,.93-.28,1.29,1.29,0,0,1,.33.06Z"/><path class="a1aee5f1-328a-4594-ad95-1e1f6ac64618" d="M82.61,59.8a2.12,2.12,0,0,1-.45-.46,1.35,1.35,0,0,1-.21-.52,2.27,2.27,0,0,1-1.93.93,2,2,0,0,1-1-.23,1.48,1.48,0,0,1-.6-.64,1.17,1.17,0,0,1-.12-.41,2.6,2.6,0,0,1,0-.5V53.46l.92-.18v4.43a2.18,2.18,0,0,0,.08.66.83.83,0,0,0,.29.38,1.6,1.6,0,0,0,.35.15,1.4,1.4,0,0,0,.41.06,1.55,1.55,0,0,0,.89-.31,2,2,0,0,0,.68-.81V53.46l.92-.16v4.48a3,3,0,0,0,.1.87,1.16,1.16,0,0,0,.32.5Z"/><path class="a1aee5f1-328a-4594-ad95-1e1f6ac64618" d="M88.73,59.52V55.31a2.72,2.72,0,0,0,0-.55.79.79,0,0,0-.19-.35.9.9,0,0,0-.29-.18,1.3,1.3,0,0,0-.41-.07,1.83,1.83,0,0,0-.91.27,3.2,3.2,0,0,0-.86.76v4.33H85V52a5,5,0,0,0-.16-1.25l1-.18A6.71,6.71,0,0,1,86,52v1.42c0,.2,0,.47,0,.83a4.47,4.47,0,0,1,.92-.68A2.2,2.2,0,0,1,88,53.3a1.83,1.83,0,0,1,1,.27,1.28,1.28,0,0,1,.57.7,1.63,1.63,0,0,1,.08.37c0,.12,0,.29,0,.51v4.37Z"/><path class="a1aee5f1-328a-4594-ad95-1e1f6ac64618" d="M92.35,56.65v.14a4.46,4.46,0,0,0,.06.77,1.62,1.62,0,0,0,.22.57,1.45,1.45,0,0,0,.66.57,2.12,2.12,0,0,0,.87.18,2.15,2.15,0,0,0,1.51-.58l.36.62a2.86,2.86,0,0,1-.94.56,3.28,3.28,0,0,1-1.13.2,2.46,2.46,0,0,1-2-.87,3.61,3.61,0,0,1-.72-2.39,4.08,4.08,0,0,1,.18-1.3,2.85,2.85,0,0,1,.56-1,2.32,2.32,0,0,1,1.84-.85,2.22,2.22,0,0,1,1.67.66,2.6,2.6,0,0,1,.33.43,1.89,1.89,0,0,1,.22.52,5,5,0,0,1,.12.68c0,.27,0,.58,0,.95v.14Zm2.72-1.56a1.69,1.69,0,0,0-.2-.54,1.13,1.13,0,0,0-.46-.4,1.38,1.38,0,0,0-.65-.15c-.89,0-1.36.64-1.41,1.91h2.8A5.26,5.26,0,0,0,95.07,55.09Z"/><path class="a1aee5f1-328a-4594-ad95-1e1f6ac64618" d="M99.56,56.47v-.72h6v.72Z"/><path class="a1aee5f1-328a-4594-ad95-1e1f6ac64618" d="M113.57,59.52H109.4V51.13h1v7.53h3.33Z"/><path class="a1aee5f1-328a-4594-ad95-1e1f6ac64618" d="M115.23,56.65v.14a4.46,4.46,0,0,0,.06.77,1.62,1.62,0,0,0,.22.57,1.56,1.56,0,0,0,.66.57,2.23,2.23,0,0,0,2.38-.4l.37.62a2.91,2.91,0,0,1-1,.56,3.22,3.22,0,0,1-1.12.2,2.44,2.44,0,0,1-2-.87,3.61,3.61,0,0,1-.72-2.39,4.1,4.1,0,0,1,.17-1.3,2.73,2.73,0,0,1,.57-1,2.29,2.29,0,0,1,1.84-.85,2.21,2.21,0,0,1,1.66.66,2.67,2.67,0,0,1,.34.43,1.89,1.89,0,0,1,.21.52,5,5,0,0,1,.12.68c0,.27,0,.58,0,.95v.14ZM118,55.09a1.49,1.49,0,0,0-.2-.54,1.13,1.13,0,0,0-.46-.4,1.38,1.38,0,0,0-.65-.15c-.89,0-1.36.64-1.41,1.91H118A4.27,4.27,0,0,0,118,55.09Z"/><path class="a1aee5f1-328a-4594-ad95-1e1f6ac64618" d="M122,51.54a.72.72,0,0,1-.21.53.73.73,0,0,1-.53.22.75.75,0,0,1-.53-.22.72.72,0,0,1-.21-.52.76.76,0,0,1,.21-.54.71.71,0,0,1,.53-.22.72.72,0,0,1,.53.21A.75.75,0,0,1,122,51.54Zm-1.25,8V53.45l1-.16v6.23Z"/><path class="a1aee5f1-328a-4594-ad95-1e1f6ac64618" d="M128.83,56.4a5.2,5.2,0,0,1-.17,1.35,3.28,3.28,0,0,1-.49,1,2.3,2.3,0,0,1-.76.67,2.1,2.1,0,0,1-2,0,2.31,2.31,0,0,1-.73-.59c0,.13,0,.24,0,.33a1.07,1.07,0,0,1-.13.33h-1a2.28,2.28,0,0,0,.14-.56,7.85,7.85,0,0,0,0-1V52a5,5,0,0,0-.16-1.25l1-.18a6.73,6.73,0,0,1,.17,1.45v1.42c0,.15,0,.38,0,.67a3.37,3.37,0,0,1,.85-.63,2.15,2.15,0,0,1,.89-.19,2,2,0,0,1,1,.22,2,2,0,0,1,.74.62,3.08,3.08,0,0,1,.47,1A5.18,5.18,0,0,1,128.83,56.4Zm-1-.07a5.38,5.38,0,0,0-.08-1,1.83,1.83,0,0,0-.28-.65,1.18,1.18,0,0,0-.48-.39,1.66,1.66,0,0,0-.66-.14,1.83,1.83,0,0,0-.87.23,2,2,0,0,0-.66.57V58.1a2,2,0,0,0,.66.52,1.86,1.86,0,0,0,.84.21,1.51,1.51,0,0,0,.62-.14,1.13,1.13,0,0,0,.48-.4,2.5,2.5,0,0,0,.3-.72A5.11,5.11,0,0,0,127.79,56.33Z"/><path class="a1aee5f1-328a-4594-ad95-1e1f6ac64618" d="M134.05,59.52v-4.1c0-.16,0-.3,0-.4a1.56,1.56,0,0,0,0-.27.84.84,0,0,0-.07-.19l-.1-.15a.85.85,0,0,0-.68-.26,1.31,1.31,0,0,0-.41.07,2.82,2.82,0,0,0-.45.18,3,3,0,0,0-.45.28,2.07,2.07,0,0,0-.38.32v4.52h-.92v-4.7a3.5,3.5,0,0,0-.24-1.28l.94-.26.06.14a2,2,0,0,1,.1.35,1.78,1.78,0,0,1,.06.47,2.76,2.76,0,0,1,1.93-1,1.65,1.65,0,0,1,.9.25,1.37,1.37,0,0,1,.59.65,1.67,1.67,0,0,1,.15.71v4.62Z"/><path class="a1aee5f1-328a-4594-ad95-1e1f6ac64618" d="M138.27,51.54a.72.72,0,0,1-.21.53.73.73,0,0,1-.53.22.75.75,0,0,1-.53-.22.72.72,0,0,1-.21-.52A.76.76,0,0,1,137,51a.71.71,0,0,1,.53-.22.72.72,0,0,1,.53.21A.75.75,0,0,1,138.27,51.54Zm-1.25,8V53.45l1-.16v6.23Z"/><path class="a1aee5f1-328a-4594-ad95-1e1f6ac64618" d="M143.47,59.52h-4.08v-.74l3.33-4.62h-3.07v-.73h4.08v.78l-3.18,4.57h3.38Z"/><path class="a1aee5f1-328a-4594-ad95-1e1f6ac64618" d="M145,56.73v-.92h2.34v.92Z"/><path class="a1aee5f1-328a-4594-ad95-1e1f6ac64618" d="M149.12,59.52V51.13h1v8.39Z"/><path class="a1aee5f1-328a-4594-ad95-1e1f6ac64618" d="M155.78,59.52v-4.1c0-.16,0-.3,0-.4a1.56,1.56,0,0,0,0-.27.84.84,0,0,0-.07-.19l-.1-.15a.87.87,0,0,0-.68-.26,1.31,1.31,0,0,0-.41.07,2.82,2.82,0,0,0-.45.18,2.6,2.6,0,0,0-.45.28,2.07,2.07,0,0,0-.38.32v4.52h-.92v-4.7a3.5,3.5,0,0,0-.24-1.28l.94-.26.06.14a3.48,3.48,0,0,1,.1.35,1.78,1.78,0,0,1,.06.47,2.76,2.76,0,0,1,1.93-1,1.65,1.65,0,0,1,.9.25,1.42,1.42,0,0,1,.59.65,1.67,1.67,0,0,1,.15.71v4.62Z"/><path class="a1aee5f1-328a-4594-ad95-1e1f6ac64618" d="M162.7,57.73a2,2,0,0,1-.17.81,1.93,1.93,0,0,1-.47.63,2.16,2.16,0,0,1-.73.41,2.75,2.75,0,0,1-.93.15,4.85,4.85,0,0,1-1.18-.16,4.62,4.62,0,0,1-1.06-.44l.37-.71a3.72,3.72,0,0,0,1.94.57,1.38,1.38,0,0,0,.91-.28,1,1,0,0,0,.33-.78.89.89,0,0,0-.24-.66,1.46,1.46,0,0,0-.76-.35l-.77-.16a2.06,2.06,0,0,1-1.15-.61,1.56,1.56,0,0,1-.39-1.08,1.76,1.76,0,0,1,.16-.76,1.69,1.69,0,0,1,.44-.59,2.19,2.19,0,0,1,.69-.38,2.46,2.46,0,0,1,.88-.15,4.37,4.37,0,0,1,1.86.48l-.36.7a7.92,7.92,0,0,0-.77-.32,2.37,2.37,0,0,0-.76-.12,1.21,1.21,0,0,0-.85.28.94.94,0,0,0-.31.74.79.79,0,0,0,.2.58,1.2,1.2,0,0,0,.68.32l.81.17C162.15,56.25,162.7,56.82,162.7,57.73Z"/><path class="a1aee5f1-328a-4594-ad95-1e1f6ac64618" d="M166.6,54.15h-1.28v4a1.13,1.13,0,0,0,.17.71.79.79,0,0,0,.62.19,1.58,1.58,0,0,0,.34,0l.26-.09.14.62a2.35,2.35,0,0,1-1.08.24,1.94,1.94,0,0,1-.44,0,1.48,1.48,0,0,1-.35-.13,1,1,0,0,1-.45-.45,2.09,2.09,0,0,1-.13-.77v-4.2h-.8v-.73h.8c0-.15,0-.32,0-.5s0-.34,0-.5,0-.34.06-.55l1-.22q0,.32-.06.57c0,.18,0,.37,0,.57s0,.42,0,.63h1.54Z"/><path class="a1aee5f1-328a-4594-ad95-1e1f6ac64618" d="M169.52,51.54a.72.72,0,0,1-.21.53.75.75,0,0,1-1.06,0,.72.72,0,0,1-.21-.52.76.76,0,0,1,.21-.54.69.69,0,0,1,.53-.22.72.72,0,0,1,.53.21A.75.75,0,0,1,169.52,51.54Zm-1.25,8V53.45l1-.16v6.23Z"/><path class="a1aee5f1-328a-4594-ad95-1e1f6ac64618" d="M173.65,54.15h-1.28v4a1.13,1.13,0,0,0,.17.71.79.79,0,0,0,.62.19,1.58,1.58,0,0,0,.34,0l.26-.09.14.62a2.32,2.32,0,0,1-1.08.24,1.94,1.94,0,0,1-.44,0,1.48,1.48,0,0,1-.35-.13,1,1,0,0,1-.45-.45,2.09,2.09,0,0,1-.13-.77v-4.2h-.8v-.73h.8c0-.15,0-.32,0-.5s0-.34,0-.5,0-.34.05-.55l1-.22q0,.32-.06.57c0,.18,0,.37,0,.57s0,.42,0,.63H174Z"/><path class="a1aee5f1-328a-4594-ad95-1e1f6ac64618" d="M179.6,59.8a1.91,1.91,0,0,1-.45-.46,1.35,1.35,0,0,1-.21-.52,2.29,2.29,0,0,1-1.93.93,2,2,0,0,1-1-.23,1.48,1.48,0,0,1-.6-.64,1.17,1.17,0,0,1-.12-.41,2.6,2.6,0,0,1,0-.5V53.46l.92-.18v4.43a2.18,2.18,0,0,0,.08.66.77.77,0,0,0,.29.38,1.6,1.6,0,0,0,.35.15,1.4,1.4,0,0,0,.41.06,1.57,1.57,0,0,0,.89-.31,2,2,0,0,0,.68-.81V53.46l.92-.16v4.48a3.11,3.11,0,0,0,.09.87,1.18,1.18,0,0,0,.33.5Z"/><path class="a1aee5f1-328a-4594-ad95-1e1f6ac64618" d="M184.25,54.15H183v4a1.13,1.13,0,0,0,.17.71.79.79,0,0,0,.62.19,1.58,1.58,0,0,0,.34,0l.26-.09.14.62a2.32,2.32,0,0,1-1.08.24,1.94,1.94,0,0,1-.44,0,1.48,1.48,0,0,1-.35-.13,1,1,0,0,1-.45-.45,2.09,2.09,0,0,1-.13-.77v-4.2h-.8v-.73h.8c0-.15,0-.32,0-.5s0-.34,0-.5,0-.34.06-.55l1-.22q0,.32-.06.57c0,.18,0,.37,0,.57s0,.42,0,.63h1.54Z"/><path class="a1aee5f1-328a-4594-ad95-1e1f6ac64618" d="M191.52,51.68a3.22,3.22,0,0,0-.41-.19,1.46,1.46,0,0,0-.49-.09q-.84,0-.84,1.08v.94h1.69l-.29.73h-1.4v5.37h-1V54.15h-.59v-.73h.59v-1a2.49,2.49,0,0,1,.06-.59,2,2,0,0,1,.17-.42,1.38,1.38,0,0,1,.22-.29,1.2,1.2,0,0,1,.21-.19,1.72,1.72,0,0,1,1.07-.32,2.46,2.46,0,0,1,1.35.35Z"/><path class="a1aee5f1-328a-4594-ad95-1e1f6ac64618" d="M196.66,59.8a2.12,2.12,0,0,1-.45-.46,1.35,1.35,0,0,1-.21-.52,2.27,2.27,0,0,1-1.93.93,2,2,0,0,1-1-.23,1.48,1.48,0,0,1-.6-.64,1.17,1.17,0,0,1-.12-.41,2.6,2.6,0,0,1,0-.5V53.46l.92-.18v4.41a2.27,2.27,0,0,0,.08.66.8.8,0,0,0,.29.37,1.25,1.25,0,0,0,.35.16,1.84,1.84,0,0,0,.41,0,1.54,1.54,0,0,0,.89-.3,2,2,0,0,0,.68-.81V53.46l.92-.16v4.48a3,3,0,0,0,.1.87,1.16,1.16,0,0,0,.32.5ZM194,51.92a.65.65,0,0,1-.18.46.64.64,0,0,1-1.09-.46.6.6,0,0,1,.19-.45.59.59,0,0,1,.44-.18.61.61,0,0,1,.45.18A.64.64,0,0,1,194,51.92Zm2.54,0a.65.65,0,0,1-.63.65.66.66,0,0,1-.46-.19.62.62,0,0,1-.19-.46.6.6,0,0,1,.19-.45.61.61,0,0,1,.45-.18.64.64,0,0,1,.45.18A.64.64,0,0,1,196.5,51.92Z"/><path class="a1aee5f1-328a-4594-ad95-1e1f6ac64618" d="M201.68,54.34a.77.77,0,0,0-.27,0,1.4,1.4,0,0,0-1,.44,1.25,1.25,0,0,0-.28.39,1.69,1.69,0,0,0-.07.57v3.82h-1v-4.7a4.07,4.07,0,0,0-.21-1.3l1-.25a.5.5,0,0,1,.06.14,2.45,2.45,0,0,1,.11.37,1.94,1.94,0,0,1,0,.48,2.56,2.56,0,0,1,.8-.74,1.79,1.79,0,0,1,.92-.28,1.22,1.22,0,0,1,.33.06Z"/><path class="a1aee5f1-328a-4594-ad95-1e1f6ac64618" d="M206,59.52V51.13h1v8.39Z"/><path class="a1aee5f1-328a-4594-ad95-1e1f6ac64618" d="M212.64,59.52v-4.1c0-.16,0-.3,0-.4a1.56,1.56,0,0,0,0-.27.84.84,0,0,0-.07-.19,1.3,1.3,0,0,0-.1-.15.87.87,0,0,0-.68-.26,1.31,1.31,0,0,0-.41.07,2.82,2.82,0,0,0-.45.18,2.6,2.6,0,0,0-.45.28,2.07,2.07,0,0,0-.38.32v4.52h-.92v-4.7a3.5,3.5,0,0,0-.24-1.28l.94-.26.06.14a3.48,3.48,0,0,1,.1.35,1.78,1.78,0,0,1,.06.47,2.75,2.75,0,0,1,1.92-1,1.66,1.66,0,0,1,.91.25,1.42,1.42,0,0,1,.59.65,1.67,1.67,0,0,1,.15.71v4.62Z"/><path class="a1aee5f1-328a-4594-ad95-1e1f6ac64618" d="M218.41,51.68a2.85,2.85,0,0,0-.42-.19,1.37,1.37,0,0,0-.49-.09c-.55,0-.83.36-.83,1.08v.94h1.69l-.29.73h-1.4v5.37h-1V54.15h-.59v-.73h.59v-1a2.45,2.45,0,0,1,.07-.59,1.6,1.6,0,0,1,.17-.42,1.82,1.82,0,0,1,.21-.29l.21-.19a1.77,1.77,0,0,1,1.08-.32,2.46,2.46,0,0,1,1.35.35Z"/><path class="a1aee5f1-328a-4594-ad95-1e1f6ac64618" d="M224.15,56.58a4.26,4.26,0,0,1-.2,1.35,2.75,2.75,0,0,1-.55,1,2.22,2.22,0,0,1-.83.59,2.6,2.6,0,0,1-1.06.2,2.33,2.33,0,0,1-1.95-.87,3.72,3.72,0,0,1-.69-2.38,3.63,3.63,0,0,1,.69-2.35,2.35,2.35,0,0,1,1.92-.86,2.5,2.5,0,0,1,1.28.31,2.85,2.85,0,0,1,.82.76,3.18,3.18,0,0,1,.43,1A5.57,5.57,0,0,1,224.15,56.58Zm-1.11.08a4.36,4.36,0,0,0-.28-1.83,1.31,1.31,0,0,0-.56-.6,1.66,1.66,0,0,0-.74-.19,1.6,1.6,0,0,0-.75.18,1.11,1.11,0,0,0-.5.48,2.4,2.4,0,0,0-.23.67,4.89,4.89,0,0,0-.07.93,7.12,7.12,0,0,0,.1,1.18,2.6,2.6,0,0,0,.28.81,1.25,1.25,0,0,0,.51.45,1.66,1.66,0,0,0,.73.17,1.37,1.37,0,0,0,.82-.24,1.42,1.42,0,0,0,.51-.68,3.77,3.77,0,0,0,.14-.58A5.11,5.11,0,0,0,223,56.66Z"/><path class="a1aee5f1-328a-4594-ad95-1e1f6ac64618" d="M228.5,54.34a.84.84,0,0,0-.27,0,1.36,1.36,0,0,0-1,.44,1.3,1.3,0,0,0-.29.39,1.69,1.69,0,0,0-.07.57v3.82h-1v-4.7a4.07,4.07,0,0,0-.21-1.3l1-.25s0,0,.06.14a2.64,2.64,0,0,1,.1.37,2,2,0,0,1,0,.48,2.53,2.53,0,0,1,.79-.74,1.85,1.85,0,0,1,.93-.28,1.29,1.29,0,0,1,.33.06Z"/><path class="a1aee5f1-328a-4594-ad95-1e1f6ac64618" d="M236.63,59.52V55c0-.59-.26-.89-.79-.89a1.32,1.32,0,0,0-.78.25,9.31,9.31,0,0,0-.84.69v4.45h-1V55.19a2,2,0,0,0,0-.46.83.83,0,0,0-.13-.32.8.8,0,0,0-.63-.25,1.61,1.61,0,0,0-.72.19,4.92,4.92,0,0,0-.84.62v4.55H230V54.8a4.13,4.13,0,0,0-.22-1.3l.93-.22a.5.5,0,0,1,.06.14,1.94,1.94,0,0,1,.11.34,1.58,1.58,0,0,1,0,.43,2.36,2.36,0,0,1,.36-.34,2.66,2.66,0,0,1,.45-.29,2.33,2.33,0,0,1,.49-.21,1.44,1.44,0,0,1,.49-.08,1.54,1.54,0,0,1,.85.26,1.42,1.42,0,0,1,.57.76,3.88,3.88,0,0,1,1-.75,2.17,2.17,0,0,1,1-.27,1.46,1.46,0,0,1,1.12.46,1.68,1.68,0,0,1,.42,1.19v4.6Z"/><path class="a1aee5f1-328a-4594-ad95-1e1f6ac64618" d="M243.75,59.78a1.19,1.19,0,0,1-.53-.34,1.45,1.45,0,0,1-.3-.56,2.79,2.79,0,0,1-.84.63,2,2,0,0,1-.92.19,2.37,2.37,0,0,1-.94-.16,1.66,1.66,0,0,1-.6-.4,1.37,1.37,0,0,1-.32-.56,2.21,2.21,0,0,1-.09-.62,1.83,1.83,0,0,1,.85-1.62,4.16,4.16,0,0,1,2.39-.58h.43v-.42a4.6,4.6,0,0,0,0-.61.61.61,0,0,0-.17-.34.81.81,0,0,0-.34-.25,1.18,1.18,0,0,0-.48-.08,3.51,3.51,0,0,0-.55,0,3.47,3.47,0,0,0-.55.16l-.49.23a2.5,2.5,0,0,0-.38.27l-.48-.69a4.52,4.52,0,0,1,2.57-.82,1.63,1.63,0,0,1,1.69,1,2.27,2.27,0,0,1,.12.59,6.24,6.24,0,0,1,0,.76l-.05,2c0,.25,0,.45,0,.62a1.52,1.52,0,0,0,.07.41.87.87,0,0,0,.15.27,1,1,0,0,0,.27.2Zm-1.13-3.36h-.25a4.58,4.58,0,0,0-1,.1,2,2,0,0,0-.66.28,1.09,1.09,0,0,0-.36.46,1.66,1.66,0,0,0-.11.61A1,1,0,0,0,241.32,59a1.64,1.64,0,0,0,.88-.26,1.78,1.78,0,0,0,.62-.69l0-1.58Z"/><path class="a1aee5f1-328a-4594-ad95-1e1f6ac64618" d="M248.08,54.15H246.8v4a1.14,1.14,0,0,0,.16.71.81.81,0,0,0,.62.19,1.52,1.52,0,0,0,.34,0,1.43,1.43,0,0,0,.27-.09l.13.62a2.32,2.32,0,0,1-1.08.24,1.85,1.85,0,0,1-.43,0,1.4,1.4,0,0,1-.36-.13,1,1,0,0,1-.44-.45,1.9,1.9,0,0,1-.13-.77v-4.2h-.8v-.73h.8c0-.15,0-.32,0-.5s0-.34,0-.5,0-.34.05-.55l1-.22q0,.32-.06.57c0,.18,0,.37-.05.57s0,.42,0,.63h1.53Z"/><path class="a1aee5f1-328a-4594-ad95-1e1f6ac64618" d="M251,51.54a.72.72,0,0,1-.21.53.75.75,0,0,1-1.06,0,.72.72,0,0,1-.21-.52.76.76,0,0,1,.21-.54.69.69,0,0,1,.53-.22.72.72,0,0,1,.53.21A.75.75,0,0,1,251,51.54Zm-1.25,8V53.45l1-.16v6.23Z"/><path class="a1aee5f1-328a-4594-ad95-1e1f6ac64618" d="M257.58,56.58a4.27,4.27,0,0,1-.19,1.35,3.09,3.09,0,0,1-.55,1,2.3,2.3,0,0,1-.83.59,2.63,2.63,0,0,1-1.06.2,2.35,2.35,0,0,1-2-.87,3.72,3.72,0,0,1-.69-2.38,3.58,3.58,0,0,1,.7-2.35,2.33,2.33,0,0,1,1.91-.86,2.45,2.45,0,0,1,1.28.31,2.89,2.89,0,0,1,.83.76,2.94,2.94,0,0,1,.42,1A5.08,5.08,0,0,1,257.58,56.58Zm-1.1.08a4.53,4.53,0,0,0-.28-1.83,1.36,1.36,0,0,0-.56-.6,1.7,1.7,0,0,0-.75-.19,1.6,1.6,0,0,0-.75.18,1.22,1.22,0,0,0-.5.48,2.4,2.4,0,0,0-.22.67,4.89,4.89,0,0,0-.07.93,6.18,6.18,0,0,0,.1,1.18,2.36,2.36,0,0,0,.28.81,1.13,1.13,0,0,0,.51.45,1.63,1.63,0,0,0,.73.17,1.39,1.39,0,0,0,.82-.24,1.34,1.34,0,0,0,.5-.68,2.34,2.34,0,0,0,.14-.58A4.91,4.91,0,0,0,256.48,56.66Z"/><path class="a1aee5f1-328a-4594-ad95-1e1f6ac64618" d="M262.87,59.52v-4.1c0-.16,0-.3,0-.4s0-.2,0-.27a.84.84,0,0,0-.07-.19.72.72,0,0,0-.11-.15.83.83,0,0,0-.67-.26,1.31,1.31,0,0,0-.41.07,2.92,2.92,0,0,0-.46.18,3.68,3.68,0,0,0-.45.28,3.05,3.05,0,0,0-.38.32v4.52h-.92v-4.7a3.71,3.71,0,0,0-.23-1.28l.93-.26a.5.5,0,0,1,.06.14,1.83,1.83,0,0,1,.11.35,1.78,1.78,0,0,1,0,.47,2.77,2.77,0,0,1,1.93-1,1.66,1.66,0,0,1,.91.25,1.42,1.42,0,0,1,.59.65,1.67,1.67,0,0,1,.15.71v4.62Z"/><path class="a1aee5f1-328a-4594-ad95-1e1f6ac64618" d="M269.82,57.73a2,2,0,0,1-.17.81,1.8,1.8,0,0,1-.47.63,2.12,2.12,0,0,1-.72.41,2.81,2.81,0,0,1-.94.15,4.85,4.85,0,0,1-1.18-.16,4.62,4.62,0,0,1-1.06-.44l.37-.71a3.72,3.72,0,0,0,1.94.57,1.38,1.38,0,0,0,.91-.28,1,1,0,0,0,.34-.78.89.89,0,0,0-.24-.66,1.49,1.49,0,0,0-.77-.35l-.76-.16a2.05,2.05,0,0,1-1.16-.61,1.56,1.56,0,0,1-.39-1.08,1.76,1.76,0,0,1,.16-.76,1.72,1.72,0,0,1,.45-.59,2.14,2.14,0,0,1,.68-.38,2.5,2.5,0,0,1,.88-.15,3.67,3.67,0,0,1,1,.14,3.74,3.74,0,0,1,.89.34l-.35.7c-.28-.13-.53-.23-.77-.32a2.48,2.48,0,0,0-.77-.12,1.19,1.19,0,0,0-.84.28,1,1,0,0,0-.32.74.83.83,0,0,0,.2.58,1.23,1.23,0,0,0,.68.32l.81.17C269.28,56.25,269.82,56.82,269.82,57.73Z"/><path class="a1aee5f1-328a-4594-ad95-1e1f6ac64618" d="M272.67,51.54a.75.75,0,0,1-.75.75.71.71,0,0,1-.52-.22.69.69,0,0,1-.22-.52.73.73,0,0,1,.22-.54.67.67,0,0,1,.52-.22.72.72,0,0,1,.53.21A.76.76,0,0,1,272.67,51.54Zm-1.25,8V53.45l1-.16v6.23Z"/><path class="a1aee5f1-328a-4594-ad95-1e1f6ac64618" d="M278,59.52v-4.1c0-.16,0-.3,0-.4a1.56,1.56,0,0,0,0-.27.84.84,0,0,0-.07-.19,1.3,1.3,0,0,0-.1-.15.87.87,0,0,0-.68-.26,1.31,1.31,0,0,0-.41.07,3.35,3.35,0,0,0-.46.18,3,3,0,0,0-.44.28,2.07,2.07,0,0,0-.38.32v4.52h-.93v-4.7a3.49,3.49,0,0,0-.23-1.28l.93-.26.07.14a3.48,3.48,0,0,1,.1.35,1.78,1.78,0,0,1,.06.47,2.75,2.75,0,0,1,1.92-1,1.66,1.66,0,0,1,.91.25,1.42,1.42,0,0,1,.59.65,1.67,1.67,0,0,1,.15.71v4.62Z"/><path class="a1aee5f1-328a-4594-ad95-1e1f6ac64618" d="M283.71,51.68a2.85,2.85,0,0,0-.42-.19,1.37,1.37,0,0,0-.49-.09c-.55,0-.83.36-.83,1.08v.94h1.69l-.29.73H282v5.37h-1V54.15h-.59v-.73H281v-1a2.45,2.45,0,0,1,.07-.59,1.6,1.6,0,0,1,.17-.42,1.82,1.82,0,0,1,.21-.29l.21-.19a1.75,1.75,0,0,1,1.08-.32,2.46,2.46,0,0,1,1.35.35Z"/><path class="a1aee5f1-328a-4594-ad95-1e1f6ac64618" d="M287.21,54.34a.77.77,0,0,0-.27,0,1.4,1.4,0,0,0-1,.44,1.25,1.25,0,0,0-.28.39,1.69,1.69,0,0,0-.07.57v3.82h-1v-4.7a4.07,4.07,0,0,0-.21-1.3l1-.25.07.14c0,.09.06.21.1.37a1.94,1.94,0,0,1,0,.48,2.56,2.56,0,0,1,.8-.74,1.79,1.79,0,0,1,.92-.28,1.22,1.22,0,0,1,.33.06Z"/><path class="a1aee5f1-328a-4594-ad95-1e1f6ac64618" d="M292.65,59.78a1.19,1.19,0,0,1-.53-.34,1.45,1.45,0,0,1-.3-.56,2.89,2.89,0,0,1-.83.63,2.12,2.12,0,0,1-.93.19,2.4,2.4,0,0,1-.94-.16,1.66,1.66,0,0,1-.6-.4,1.37,1.37,0,0,1-.32-.56,2.21,2.21,0,0,1-.09-.62,1.83,1.83,0,0,1,.85-1.62,4.16,4.16,0,0,1,2.39-.58h.43v-.42a4.6,4.6,0,0,0,0-.61.61.61,0,0,0-.17-.34.76.76,0,0,0-.34-.25,1.15,1.15,0,0,0-.48-.08,3.51,3.51,0,0,0-.55,0,3.47,3.47,0,0,0-.55.16l-.49.23a2.5,2.5,0,0,0-.38.27l-.48-.69a4.55,4.55,0,0,1,2.57-.82,1.63,1.63,0,0,1,1.69,1,2.27,2.27,0,0,1,.12.59,6.24,6.24,0,0,1,0,.76l-.05,2v.62a1.52,1.52,0,0,0,.07.41.72.72,0,0,0,.16.27.73.73,0,0,0,.27.2Zm-1.13-3.36h-.25a4.65,4.65,0,0,0-1,.1,2,2,0,0,0-.66.28,1.09,1.09,0,0,0-.36.46,1.66,1.66,0,0,0-.11.61A1,1,0,0,0,290.22,59a1.64,1.64,0,0,0,.88-.26,1.78,1.78,0,0,0,.62-.69l0-1.58Z"/><path class="a1aee5f1-328a-4594-ad95-1e1f6ac64618" d="M298.72,57.73a2,2,0,0,1-.16.81,1.93,1.93,0,0,1-.47.63,2.26,2.26,0,0,1-.73.41,2.77,2.77,0,0,1-.94.15,4.71,4.71,0,0,1-1.17-.16,4.44,4.44,0,0,1-1.06-.44l.37-.71a3.69,3.69,0,0,0,1.94.57,1.36,1.36,0,0,0,.9-.28,1,1,0,0,0,.34-.78.89.89,0,0,0-.24-.66,1.49,1.49,0,0,0-.77-.35l-.76-.16a2.09,2.09,0,0,1-1.16-.61,1.56,1.56,0,0,1-.39-1.08,1.76,1.76,0,0,1,.16-.76,1.85,1.85,0,0,1,.45-.59,2.14,2.14,0,0,1,.68-.38,2.5,2.5,0,0,1,.88-.15,3.67,3.67,0,0,1,1,.14,3.59,3.59,0,0,1,.89.34l-.35.7c-.27-.13-.53-.23-.77-.32a2.43,2.43,0,0,0-.77-.12,1.2,1.2,0,0,0-.84.28,1,1,0,0,0-.32.74.83.83,0,0,0,.2.58,1.23,1.23,0,0,0,.69.32l.8.17C298.18,56.25,298.72,56.82,298.72,57.73Z"/><path class="a1aee5f1-328a-4594-ad95-1e1f6ac64618" d="M302.79,54.15h-1.28v4a1.13,1.13,0,0,0,.17.71.78.78,0,0,0,.62.19,1.34,1.34,0,0,0,.6-.12l.13.62a2.32,2.32,0,0,1-1.08.24,1.85,1.85,0,0,1-.43,0,1.4,1.4,0,0,1-.36-.13,1,1,0,0,1-.44-.45,1.9,1.9,0,0,1-.13-.77v-4.2h-.8v-.73h.8c0-.15,0-.32,0-.5s0-.34,0-.5,0-.34.05-.55l1-.22q0,.32-.06.57c0,.18,0,.37,0,.57s0,.42,0,.63h1.53Z"/><path class="a1aee5f1-328a-4594-ad95-1e1f6ac64618" d="M306.94,54.34a.77.77,0,0,0-.27,0,1.36,1.36,0,0,0-1,.44,1.25,1.25,0,0,0-.28.39,1.65,1.65,0,0,0-.08.57v3.82h-1v-4.7a4.07,4.07,0,0,0-.21-1.3l1-.25a.5.5,0,0,1,.06.14,1.73,1.73,0,0,1,.1.37,1.56,1.56,0,0,1,0,.48,2.64,2.64,0,0,1,.79-.74,1.85,1.85,0,0,1,.93-.28,1.29,1.29,0,0,1,.33.06Z"/><path class="a1aee5f1-328a-4594-ad95-1e1f6ac64618" d="M312.69,59.8a2.12,2.12,0,0,1-.45-.46,1.35,1.35,0,0,1-.21-.52,2.27,2.27,0,0,1-1.93.93,2,2,0,0,1-1-.23,1.48,1.48,0,0,1-.6-.64,1.17,1.17,0,0,1-.12-.41,2.6,2.6,0,0,1,0-.5V53.46l.92-.18v4.43a2.18,2.18,0,0,0,.08.66.83.83,0,0,0,.29.38,1.6,1.6,0,0,0,.35.15,1.4,1.4,0,0,0,.41.06,1.55,1.55,0,0,0,.89-.31,2,2,0,0,0,.68-.81V53.46l.92-.16v4.48a3,3,0,0,0,.1.87,1.16,1.16,0,0,0,.32.5Z"/><path class="a1aee5f1-328a-4594-ad95-1e1f6ac64618" d="M315.13,59.52V52a5,5,0,0,0-.16-1.25l1-.19a6.73,6.73,0,0,1,.17,1.45v7.53Zm3.84,0-2.82-3.45,2.34-2.64h1.2l-2.41,2.64,3,3.45Z"/><path class="a1aee5f1-328a-4594-ad95-1e1f6ac64618" d="M323.56,54.15h-1.28v4a1.13,1.13,0,0,0,.17.71.78.78,0,0,0,.62.19,1.34,1.34,0,0,0,.6-.12l.13.62a2.32,2.32,0,0,1-1.08.24,1.85,1.85,0,0,1-.43,0,1.4,1.4,0,0,1-.36-.13,1,1,0,0,1-.44-.45,1.9,1.9,0,0,1-.13-.77v-4.2h-.8v-.73h.8c0-.15,0-.32,0-.5s0-.34,0-.5,0-.34.06-.55l1-.22q0,.32-.06.57c0,.18,0,.37,0,.57s0,.42,0,.63h1.53Z"/><path class="a1aee5f1-328a-4594-ad95-1e1f6ac64618" d="M329.47,59.8a1.91,1.91,0,0,1-.45-.46,1.35,1.35,0,0,1-.21-.52,2.29,2.29,0,0,1-1.93.93,2,2,0,0,1-1-.23,1.48,1.48,0,0,1-.6-.64,1.17,1.17,0,0,1-.12-.41,2.6,2.6,0,0,1,0-.5V53.46l.92-.18v4.43a2.18,2.18,0,0,0,.08.66.77.77,0,0,0,.29.38,1.6,1.6,0,0,0,.35.15,1.4,1.4,0,0,0,.41.06,1.57,1.57,0,0,0,.89-.31,2,2,0,0,0,.68-.81V53.46l.92-.16v4.48a3.11,3.11,0,0,0,.09.87,1.18,1.18,0,0,0,.33.5Z"/><path class="a1aee5f1-328a-4594-ad95-1e1f6ac64618" d="M334.5,54.34a.77.77,0,0,0-.27,0,1.4,1.4,0,0,0-1,.44,1.25,1.25,0,0,0-.28.39,1.69,1.69,0,0,0-.07.57v3.82h-1v-4.7a4.36,4.36,0,0,0-.2-1.3l1-.25a.76.76,0,0,1,.07.14c0,.09.06.21.1.37a1.94,1.94,0,0,1,0,.48,2.67,2.67,0,0,1,.8-.74,1.79,1.79,0,0,1,.92-.28,1.28,1.28,0,0,1,.34.06Z"/></g></g></g></g><g id="e1607227-b817-4fa3-a1b8-ece8d14da26d" data-name="bildmarke"><g id="ba2ec90b-b0d0-48b8-979b-80746aab9eba" data-name="farbig"><path class="a1aee5f1-328a-4594-ad95-1e1f6ac64618" d="M13.17,26.57l-2.68,6.3A17.13,17.13,0,0,1,23.88,1.34L21.2,7.65a10.28,10.28,0,1,0-8,18.92"/><path class="e43ae17a-d41b-450e-a984-28f3db065325" d="M17.18,20.53a3.43,3.43,0,1,0-3.42-3.42,3.43,3.43,0,0,0,3.42,3.42"/></g></g><script xmlns=""/></svg>